PathFileType	4	(X/Y/Z)	T1_P2_NoVision_Movement_0_0-734.trc
DataRate	CameraRate	NumFrames	NumMarkers	Units	OrigDataRate	OrigDataStartFrame	OrigNumFrames
60	60	4	27	m	60	275	734
Frame#	Time	RHip			RKnee			RAnkle			RBigToe			RSmallToe			RHeel			LHip			LKnee			LAnkle			LBigToe			LSmallToe			LHeel			Neck			Head			Nose			RShoulder			RElbow			RWrist			RThumb			RIndex			RPinky			LShoulder			LElbow			LWrist			LThumb			LIndex			LPinky		
		X1	Y1	Z1	X2	Y2	Z2	X3	Y3	Z3	X4	Y4	Z4	X5	Y5	Z5	X6	Y6	Z6	X7	Y7	Z7	X8	Y8	Z8	X9	Y9	Z9	X10	Y10	Z10	X11	Y11	Z11	X12	Y12	Z12	X13	Y13	Z13	X14	Y14	Z14	X15	Y15	Z15	X16	Y16	Z16	X17	Y17	Z17	X18	Y18	Z18	X19	Y19	Z19	X20	Y20	Z20	X21	Y21	Z21	X22	Y22	Z22	X23	Y23	Z23	X24	Y24	Z24	X25	Y25	Z25	X26	Y26	Z26	X27	Y27	Z27
276	4.6	458.24520373737965	3633.6638214302943	530.4576432161888	870.4686296703792	3721.5194234232986	578.5153856745668	1242.449462072679	3723.9182205509865	619.8317932979068	1326.747504156039	3625.1869436676484	612.6515847568819	1302.6364433265908	3633.7211527039535	547.4290833218188	1269.5775051751027	3707.2641751031624	632.7247017262364	461.9036527066411	3531.050150250484	742.189047003357	855.7632659932103	3561.3627118834434	753.9063235762704	1204.6090524402891	3600.3971526513783	754.1208673228863	1312.6119517698978	3545.4995955207137	694.6749805025507	1260.948982225094	3449.996139294058	712.7782457840418	1256.8803402628353	3618.112307839454	736.3894561733296	-122.11171583116833	3537.5245260005263	636.1556999271792	-368.49678173968107	3500.7226655566055	621.7881594070122	-230.16618921216886	3451.3278861624935	600.6432101548355	-40.73134780303921	3670.039794547247	530.726601632157	182.86557615577541	3735.7047992440466	439.0524029387234	165.46623435827155	3562.6838397219713	408.7527229324557	95.20677959203513	3462.1902464994478	419.7456066916836	99.22155378520412	3472.257134999413	403.394581305751	172.84965367934845	3475.012759354715	426.3451848183041	-27.519339276767603	3545.149185534995	818.0365113134864	225.88712631425923	3473.3285537877086	857.3590462861325	471.81764561514876	3433.536248507083	830.1765863996762	583.4893935490039	3452.321686749817	811.7045024483166	598.4958898993044	3426.7690769714904	815.5597424843924	602.8603113343937	3422.22978361803	847.9977032327532
277	4.616666666666666	454.3686286139091	3638.2161106632175	532.7268495733217	868.9595838413447	3718.676910346134	578.3767637388418	1237.041788593905	3720.5896376549354	619.2171921670772	1326.8893764982615	3625.7481971901034	612.6855438827068	1302.8242126018793	3634.237167475506	547.6050158461786	1266.443297751003	3698.2330816658846	629.3801088780358	461.9434603112722	3530.776339233695	741.9543579049678	855.689944470624	3542.540987016034	748.9170998370299	1207.6627524515902	3595.826626999655	751.531598927084	1317.9310984409249	3543.8045527059685	700.3018626322996	1266.168563887263	3452.049375229544	714.7447341986131	1261.8296021298092	3626.7506364951764	746.2672223892156	-113.48708062206866	3543.0434732725575	638.4305350390811	-368.55225357678944	3501.00808562275	622.0641626349118	-225.43168748623995	3447.5423598897373	598.532785524989	-40.425212714202864	3692.0776747423233	535.7540581346566	181.04514553692985	3759.073186523846	450.3217664247906	160.86997324851583	3560.7683197659094	407.80408566007907	95.64251091320028	3462.6819057165685	419.94033669247904	104.01169872326822	3473.7858681408165	404.00989816067613	167.63047397835518	3473.409150288263	425.14612478214667	-27.615834523738673	3545.266893286052	817.9051257041787	221.50310856933896	3477.331178115579	859.6792545515578	471.74453916919157	3433.604871168732	830.0639608827013	577.4629968255149	3443.0521364989672	801.0873745336953	598.5543132916584	3426.962337597267	815.5135438851528	602.9822786186746	3441.374020941706	864.6219312793331
278	4.633333333333334	458.3370189205443	3633.4011150798087	530.2331850525644	869.1020404008241	3718.7959946870465	578.3232453049521	1243.4522608663176	3725.128243721522	620.2626927890561	1326.987035565621	3625.592306712506	612.7018666794576	1322.5388650953034	3656.396854741086	563.095629312362	1286.1827382722333	3725.2369059891284	637.1308636673858	461.79865527294186	3530.665304211781	741.792818803396	865.307951494062	3542.020074817115	747.6095757217433	1222.283368699594	3604.7543416414555	754.4398624718426	1323.9015187869547	3547.4822779233828	701.0654970580235	1272.4454677547312	3455.6820193299154	715.7900449338862	1262.396221017468	3610.2600357392644	741.3494592132763	-118.10739663159455	3541.372979516776	637.7015149643396	-368.49922503542433	3500.958433192553	621.9508745403773	-225.5019132819106	3449.3833133356284	594.0751884434433	-40.393683176766075	3691.8925955635473	535.6628425626333	190.51782236153724	3764.4183863820645	452.2285024802134	160.97288564673866	3560.6131727587613	407.8081907415996	95.29798094505787	3462.6143666680014	419.6520789362658	103.62568193073409	3473.792553656829	404.0062590757378	167.37310963492772	3473.7377749426028	425.83724362825944	-27.700145032500245	3545.3824158389402	817.8199048632131	219.5255633569559	3463.343919031899	846.0758631938855	471.7331632352319	3433.571301445166	830.0168666978635	580.3231490769849	3439.8822652505733	798.7940850666095	598.4137860324354	3427.429236143126	815.6259892249191	599.1115085777276	3427.6791790465163	851.0548626005834
279	4.65	458.32873532864716	3633.4646106256146	530.2915075826538	866.6749375691429	3696.0018859393913	561.7342712415752	1250.389570825965	3746.1004565410944	625.4596229574569	1326.9283464894606	3625.467308853824	612.7507922819552	1309.6230563500565	3638.3344788594363	548.5415200454297	1279.5859506714958	3720.2424450115595	639.5974126748563	461.72886559574465	3530.6141480386586	741.8095486885144	865.5923152110172	3542.1883017232794	747.9169094090161	1214.7004464978193	3599.399984451686	753.0789973245287	1311.1417795143443	3538.127793031542	702.4508413625982	1268.2258839344959	3464.321311901068	726.1365835396293	1262.2235506713014	3607.828203114774	745.9835407568711	-118.1577245458904	3541.384673391428	637.6704535265185	-368.4616573975499	3500.8877283585284	621.8466064666394	-225.5104328172461	3449.520691261095	594.1346224342943	-40.3650239199503	3691.993187719591	535.5660537663017	183.0131687836107	3743.5281876033087	438.1250149508351	165.61217117946003	3561.9421315799104	408.5738185339326	90.30228913225162	3460.658356813294	418.69782241353187	99.36616636034069	3472.2149574804807	403.40134196784726	167.43122418319288	3474.558380927544	426.51529014636844	-27.806884303088854	3545.3874316681245	817.6957897928341	219.3202567721216	3463.083832995602	845.8266762842226	471.66130939749854	3433.6004988769437	829.9489059778016	577.1572313034809	3443.532644652419	796.3991182537294	598.4884262920916	3427.4616872904635	815.5703046020409	599.158620313597	3427.8891827767648	851.3312660435514
